<svg width="32" height="32" viewBox="0 0 32 32" fill="none" xmlns="http://www.w3.org/2000/svg">
<path d="M16 32C24.8366 32 32 24.8366 32 16C32 7.16344 24.8366 0 16 0C7.16344 0 0 7.16344 0 16C0 24.8366 7.16344 32 16 32Z" fill="#FF4500"/>
<path d="M26.6667 15.8219C26.6667 14.502 25.6155 13.4538 24.3346 13.4538C23.7039 13.4538 23.1302 13.706 22.7097 14.1137C21.1041 12.9491 18.9056 12.1921 16.4588 12.0952L17.5292 7.00947L21.0083 7.76639C21.0468 8.65936 21.773 9.37756 22.6716 9.37756C23.5891 9.37756 24.3346 8.62064 24.3346 7.6886C24.3346 6.75692 23.5891 6 22.6716 6C22.0217 6 21.448 6.38823 21.1804 6.95122L17.3 6.11651C17.1853 6.09697 17.0706 6.11651 16.994 6.17476C16.8985 6.23301 16.8411 6.32998 16.8222 6.44648L15.6367 12.1143C13.1518 12.1921 10.9151 12.9491 9.2903 14.1333C8.86984 13.7255 8.29616 13.4733 7.66547 13.4733C6.36561 13.4733 5.33334 14.5407 5.33334 15.8414C5.33334 16.8118 5.90666 17.627 6.70981 17.996C6.67133 18.2287 6.65245 18.4617 6.65245 18.7143C6.65245 22.3632 10.8389 25.3333 16.0002 25.3333C21.1615 25.3333 25.3479 22.3827 25.3479 18.7143C25.3479 18.4812 25.3287 18.2287 25.2906 17.996C26.0934 17.627 26.6667 16.7923 26.6667 15.8219ZM10.6475 17.5105C10.6475 16.5788 11.3929 15.8219 12.3108 15.8219C13.2284 15.8219 13.9738 16.5788 13.9738 17.5105C13.9738 18.4422 13.2284 19.1994 12.3108 19.1994C11.3929 19.2186 10.6475 18.4422 10.6475 17.5105ZM19.9571 21.9945C18.8101 23.1592 16.6309 23.237 16.0002 23.237C15.3503 23.237 13.171 23.1396 12.0429 21.9945C11.8711 21.8197 11.8711 21.548 12.0429 21.3732C12.215 21.1988 12.4826 21.1988 12.6547 21.3732C13.3812 22.111 14.9106 22.3632 16.0002 22.3632C17.0898 22.3632 18.638 22.111 19.3453 21.3732C19.5174 21.1988 19.785 21.1988 19.9571 21.3732C20.11 21.548 20.11 21.8197 19.9571 21.9945ZM19.6511 19.2186C18.7335 19.2186 17.9881 18.4617 17.9881 17.53C17.9881 16.5983 18.7335 15.8414 19.6511 15.8414C20.5689 15.8414 21.3144 16.5983 21.3144 17.53C21.3144 18.4422 20.5689 19.2186 19.6511 19.2186Z" fill="white"/>
</svg>
