<svg width="32" height="32" viewBox="0 0 32 32" fill="none" xmlns="http://www.w3.org/2000/svg">
<path d="M10.0634 29.0006C22.1389 29.0006 28.7437 18.9961 28.7437 10.3202C28.7437 10.0361 28.7437 9.75321 28.7245 9.47161C30.0094 8.54221 31.1185 7.39145 32 6.07321C30.8019 6.60441 29.5307 6.95261 28.2291 7.10616C29.5998 6.28575 30.6255 4.99521 31.1155 3.47481C29.8268 4.23962 28.4168 4.77857 26.9466 5.06841C25.9567 4.01584 24.6475 3.31886 23.2216 3.08532C21.7957 2.85178 20.3326 3.09469 19.0586 3.77648C17.7847 4.45826 16.771 5.5409 16.1743 6.85687C15.5777 8.17284 15.4314 9.64876 15.7581 11.0562C13.1479 10.9253 10.5943 10.247 8.26327 9.06521C5.9322 7.88347 3.87569 6.22475 2.2272 4.19673C1.38764 5.64205 1.1305 7.35303 1.50813 8.98129C1.88577 10.6095 2.86979 12.0327 4.25984 12.9609C3.21498 12.9303 2.19286 12.6484 1.28 12.1391V12.2223C1.28041 13.7381 1.80513 15.2071 2.76516 16.3801C3.72519 17.5532 5.06141 18.358 6.5472 18.6582C5.58064 18.9218 4.5665 18.9603 3.58272 18.7708C4.00242 20.0752 4.81924 21.2159 5.91899 22.0334C7.01873 22.8509 8.34644 23.3042 9.71648 23.3302C8.35525 24.4001 6.79642 25.1912 5.12917 25.6582C3.46191 26.1251 1.71895 26.2588 0 26.0514C3.00244 27.9781 6.4959 29.0001 10.0634 28.9954" fill="#1DA1F2"/>
</svg>
