<svg width="516" height="950" viewBox="0 0 516 950" fill="none" xmlns="http://www.w3.org/2000/svg">
<g filter="url(#filter0_d)">
<path fill-rule="evenodd" clip-rule="evenodd" d="M116.149 48H399.851C431.963 48 457.995 74.0297 457.995 106.139V231.609C459.163 232.022 460 233.136 460 234.445V317.644C460 318.953 459.163 320.067 457.995 320.48V827.861C457.995 859.97 431.963 886 399.851 886H116.149C84.0369 886 58.005 859.97 58.005 827.861V333.511C56.8369 333.098 56 331.984 56 330.675V282.56C56 281.25 56.8369 280.137 58.005 279.724V261.338C56.8369 260.926 56 259.812 56 258.502V210.388C56 209.078 56.8369 207.964 58.005 207.551V183.152C56.8369 182.739 56 181.625 56 180.316V155.256C56 153.947 56.8369 152.833 58.005 152.42V106.139C58.005 74.0297 84.0369 48 116.149 48ZM116.149 60.0287C90.6807 60.0287 70.0347 80.6729 70.0347 106.139V827.861C70.0347 853.327 90.6807 873.971 116.149 873.971H399.851C425.319 873.971 445.965 853.327 445.965 827.861V106.139C445.965 80.6729 425.319 60.0287 399.851 60.0287H369.693C366.238 61.2443 363.762 64.536 363.762 68.4059C363.762 80.6644 353.823 90.6017 341.564 90.6017H173.433C161.174 90.6017 151.236 80.6644 151.236 68.4059C151.236 64.536 148.76 61.2443 145.305 60.0287H116.149Z" fill="#CFD1D1"/>
<mask id="mask0" mask-type="alpha" maskUnits="userSpaceOnUse" x="70" y="60" width="376" height="814">
<path fill-rule="evenodd" clip-rule="evenodd" d="M70.0974 103.714C70.0558 104.517 70.0347 105.325 70.0347 106.139V827.861C70.0347 853.327 90.6807 873.971 116.149 873.971H399.851C425.319 873.971 445.965 853.327 445.965 827.861V106.139C445.965 106.039 445.965 105.94 445.964 105.841C445.804 80.512 425.22 60.0287 399.851 60.0287H369.693C366.238 61.2443 363.762 64.5361 363.762 68.4059C363.762 80.6644 353.823 90.6017 341.564 90.6017H173.433C161.174 90.6017 151.236 80.6644 151.236 68.4059C151.236 64.5361 148.76 61.2443 145.305 60.0287H116.149C104.658 60.0287 94.1487 64.2313 86.0744 71.1831C82.964 73.8612 80.2149 76.9472 77.9103 80.3582C73.3615 87.0907 70.5442 95.089 70.0974 103.714Z" fill="#F1F1F1"/>
</mask>
<g mask="url(#mask0)">
<rect x="70.0347" y="60.0287" width="375.931" height="813.943" fill="white"/>
<g style="mix-blend-mode:multiply">
<path d="M-1115.85 1731.71C-1350.07 1369.45 -1438.59 728.973 -1016.79 550.206C-625.708 384.46 -594.878 746.878 -197.332 698.403C200.215 649.929 232.964 79.1025 657.251 100.149C903.52 112.366 1125.55 331.066 1164.57 650.476C1203.59 969.887 1059.59 1390.01 573.801 1805.06C114.916 2197.13 -273.479 2231.4 -564.162 2141.35C-854.844 2051.31 -1047.81 1836.93 -1115.85 1731.71Z" stroke="#B69443" stroke-width="4" stroke-miterlimit="10"/>
<path d="M534.974 1789.78C114.615 2150 -242.241 2183.7 -510.342 2102.28C-776.536 2020.96 -954.382 1826.15 -1019.12 1728.41C-1238.38 1395.05 -1323.09 803.441 -939.873 629.081C-586.033 468.085 -551.474 788.502 -185.891 741.22C-175.488 739.839 -165.344 738.09 -155.441 735.996C112.796 679.414 201.234 367.017 412.566 248.191C469.934 215.936 536.252 197.622 617.279 202.619C850.346 216.996 1054.42 421.235 1088.65 716.785C1122.7 1013.83 984.742 1403.67 534.974 1789.78Z" stroke="#B69443" stroke-width="4" stroke-miterlimit="10"/>
<path d="M496.147 1774.49C114.314 2102.87 -211.004 2135.99 -456.526 2063.19C-698.228 1990.62 -861.25 1815.58 -922.382 1725.12C-1127.7 1421.32 -1207.63 877.987 -862.956 707.955C-546.387 551.787 -507.903 831.281 -174.448 784.033C-164.837 782.671 -155.465 780.922 -146.3 778.904C101.278 724.674 190.377 446.229 387.493 343.251C441.317 315.133 502.966 299.48 577.309 305.09C797.196 321.682 983.3 511.404 1012.73 783.095C1041.82 1057.78 909.893 1417.33 496.147 1774.49Z" stroke="#B69443" stroke-width="4" stroke-miterlimit="10"/>
<path d="M457.317 1759.2C114.01 2055.74 -179.948 2088.91 -402.709 2024.12C-620.099 1960.89 -767.946 1804.89 -825.651 1721.83C-1016.42 1447.22 -1092.23 952.641 -786.041 786.83C-506.78 635.599 -464.408 873.398 -163.007 826.846C-154.193 825.485 -145.587 823.753 -137.161 821.811C89.7597 769.931 179.573 525.471 362.418 438.311C412.71 414.337 469.685 401.379 537.337 407.559C744.066 426.443 912.173 601.57 936.804 849.403C960.935 1101.73 835.044 1430.99 457.317 1759.2Z" stroke="#B69443" stroke-width="4" stroke-miterlimit="10"/>
<path d="M418.488 1743.91C114.259 2009.24 -148.759 2041.38 -348.894 1985.03C-541.837 1930.71 -674.625 1794.2 -728.923 1718.53C-905.061 1473.08 -976.88 1027.44 -709.128 865.702C-467.205 719.561 -420.914 915.431 -151.568 869.658C-143.548 868.295 -135.713 866.583 -128.023 864.717C78.2367 815.188 168.839 604.758 337.34 533.368C384.121 513.548 436.402 503.328 497.361 510.026C690.958 531.298 841.619 691.687 860.876 915.709C880.644 1145.63 760.817 1445.36 418.488 1743.91Z" stroke="#B69443" stroke-width="4" stroke-miterlimit="10"/>
<path d="M379.659 1728.63C114.048 1962.2 -117.557 1993.84 -295.077 1945.95C-463.56 1900.51 -581.274 1783.49 -632.19 1715.24C-793.59 1498.88 -861.568 1102.47 -632.211 944.576C-427.638 803.741 -377.412 957.36 -140.125 912.472C-132.899 911.104 -125.833 909.413 -118.881 907.624C66.7209 860.446 158.191 684.119 312.268 628.427C355.56 612.779 403.127 605.341 457.391 612.496C637.873 636.292 770.585 781.856 784.955 982.018C799.858 1189.58 686.09 1459.16 379.659 1728.63Z" stroke="#B69443" stroke-width="4" stroke-miterlimit="10"/>
<path d="M340.831 1713.34C113.804 1915.13 -86.3369 1946.26 -241.259 1906.87C-385.265 1870.27 -487.887 1772.77 -535.458 1711.94C-681.984 1524.61 -746.251 1177.83 -555.293 1023.45C-388.034 888.234 -333.914 999.147 -128.682 955.288C-122.25 953.913 -115.955 952.247 -109.739 950.534C55.2021 905.706 147.64 763.6 287.195 723.487C327.024 712.038 369.85 707.431 417.421 714.966C584.796 741.475 699.511 872.034 709.033 1048.33C719.039 1233.53 611.334 1472.91 340.831 1713.34Z" stroke="#B69443" stroke-width="4" stroke-miterlimit="10"/>
<path d="M302.004 1698.05C113.508 1867.99 -55.0918 1898.62 -187.443 1867.79C-306.945 1839.96 -394.447 1762.01 -438.727 1708.65C-570.198 1550.22 -638.746 1245.2 -478.377 1102.32C-341.502 980.375 -290.44 1040.73 -117.24 998.1C-111.603 996.712 -106.078 995.077 -100.596 993.44C43.6876 950.963 137.192 843.257 262.124 818.546C298.52 811.346 336.568 809.615 377.453 817.435C531.705 846.934 628.385 962.219 633.112 1114.64C638.163 1277.5 536.531 1486.61 302.004 1698.05Z" stroke="#B69443" stroke-width="4" stroke-miterlimit="10"/>
<path d="M263.175 1682.77C113.137 1820.77 -23.8128 1850.88 -133.626 1828.71C-228.592 1809.54 -300.933 1751.2 -341.996 1705.36C-458.183 1575.65 -514.894 1330.12 -401.462 1181.2C-308.127 1058.66 -247.016 1082.02 -105.799 1040.91C-100.958 1039.51 -96.2006 1037.91 -91.4569 1036.35C32.1676 996.222 126.813 923.196 237.049 913.605C270.033 910.735 303.26 911.919 337.48 919.905C478.537 952.823 557.174 1052.41 557.19 1180.95C557.207 1321.47 461.647 1500.21 263.175 1682.77Z" stroke="#B69443" stroke-width="4" stroke-miterlimit="10"/>
<path d="M224.347 1667.48C112.638 1773.41 7.51688 1802.91 -79.8096 1789.63C-150.195 1778.93 -207.307 1740.28 -245.264 1702.07C-345.865 1600.79 -397.853 1407.24 -324.545 1260.07C-267.064 1144.68 -203.729 1122.88 -94.3562 1083.73C-90.3166 1082.28 -86.3223 1080.74 -82.3152 1079.25C20.6487 1041.48 116.406 1003.54 211.975 1008.66C241.538 1010.25 269.908 1014.37 297.51 1022.37C425.165 1059.4 485.837 1142.59 481.268 1247.25C476.105 1365.43 386.591 1513.63 224.347 1667.48Z" stroke="#B69443" stroke-width="4" stroke-miterlimit="10"/>
</g>
</g>
</g>
<defs>
<filter id="filter0_d" x="0" y="0" width="516" height="950" filterUnits="userSpaceOnUse" color-interpolation-filters="sRGB">
<feFlood flood-opacity="0" result="BackgroundImageFix"/>
<feColorMatrix in="SourceAlpha" type="matrix" values="0 0 0 0 0 0 0 0 0 0 0 0 0 0 0 0 0 0 127 0"/>
<feOffset dy="8"/>
<feGaussianBlur stdDeviation="28"/>
<feColorMatrix type="matrix" values="0 0 0 0 0.329412 0 0 0 0 0.423529 0 0 0 0 0.470588 0 0 0 0.1 0"/>
<feBlend mode="normal" in2="BackgroundImageFix" result="effect1_dropShadow"/>
<feBlend mode="normal" in="SourceGraphic" in2="effect1_dropShadow" result="shape"/>
</filter>
</defs>
</svg>
